<svg t="1661151768669" class="icon" viewBox="0 0 1024 1024" version="1.1" xmlns="http://www.w3.org/2000/svg" p-id="3212" width="200" height="200"><path d="M192 384v-96c0-54.4 41.6-96 96-96h96c19.2 0 32-12.8 32-32s-12.8-32-32-32h-96c-89.6 0-160 70.4-160 160v96c0 19.2 12.8 32 32 32s32-12.8 32-32z m-64 256v96c0 89.6 70.4 160 160 160h96c19.2 0 32-12.8 32-32s-12.8-32-32-32h-96c-54.4 0-96-41.6-96-96v-96c0-19.2-12.8-32-32-32s-32 12.8-32 32z m768-256v-96c0-89.6-70.4-160-160-160h-96c-19.2 0-32 12.8-32 32s12.8 32 32 32h96c54.4 0 96 41.6 96 96v96c0 19.2 12.8 32 32 32s32-12.8 32-32z m-64 256v96c0 54.4-41.6 96-96 96h-96c-19.2 0-32 12.8-32 32s12.8 32 32 32h96c89.6 0 160-70.4 160-160v-96c0-19.2-12.8-32-32-32s-32 12.8-32 32z" p-id="3213"></path></svg>
