<svg t="1651118878747" class="icon" viewBox="0 0 1024 1024" version="1.1" xmlns="http://www.w3.org/2000/svg" p-id="8461" width="200" height="200"><path d="M574 665.4c-3.1-3.1-8.2-3.1-11.3 0L446.5 781.6c-53.8 53.8-144.6 59.5-204 0-59.5-59.5-53.8-150.2 0-204l116.2-116.2c3.1-3.1 3.1-8.2 0-11.3l-39.8-39.8c-3.1-3.1-8.2-3.1-11.3 0L191.4 526.5c-84.6 84.6-84.6 221.5 0 306s221.5 84.6 306 0l116.2-116.2c3.1-3.1 3.1-8.2 0-11.3L574 665.4zM832.6 191.4c-84.6-84.6-221.5-84.6-306 0L410.3 307.6c-3.1 3.1-3.1 8.2 0 11.3l39.7 39.7c3.1 3.1 8.2 3.1 11.3 0l116.2-116.2c53.8-53.8 144.6-59.5 204 0 59.5 59.5 53.8 150.2 0 204L665.3 562.6c-3.1 3.1-3.1 8.2 0 11.3l39.8 39.8c3.1 3.1 8.2 3.1 11.3 0l116.2-116.2c84.5-84.6 84.5-221.5 0-306.1z" p-id="8462"></path><path d="M610.1 372.3c-3.1-3.1-8.2-3.1-11.3 0L372.3 598.7c-3.1 3.1-3.1 8.2 0 11.3l39.6 39.6c3.1 3.1 8.2 3.1 11.3 0l226.4-226.4c3.1-3.1 3.1-8.2 0-11.3l-39.5-39.6z" p-id="8463"></path></svg>
