<?xml version="1.0" standalone="no"?><!DOCTYPE svg PUBLIC "-//W3C//DTD SVG 1.1//EN" "http://www.w3.org/Graphics/SVG/1.1/DTD/svg11.dtd"><svg t="1667294092969" class="icon" viewBox="0 0 1070 1024" version="1.1" xmlns="http://www.w3.org/2000/svg" p-id="2325" xmlns:xlink="http://www.w3.org/1999/xlink" width="208.984375" height="200"><path d="M232.582 358.133c12.288 36.33 32.59 67.851 60.905 95.633 24.042-26.18 42.207-58.235 53.96-95.633H232.583z" p-id="2326"></path><path d="M981.615 143.36H532.836L507.192 6.055H90.468C44.522 6.055 7.123 43.453 7.123 89.4v708.43c0 45.946 37.399 83.344 83.345 83.344h379.86l-30.453 137.305h541.74c45.947 0 83.345-37.398 83.345-83.344v-708.43c0-45.947-37.398-83.345-83.345-83.345zM415.833 564.358c-49.152-18.165-89.756-41.139-122.346-67.852-34.192 30.453-76.933 52.892-126.62 66.783l-17.096-28.316c48.618-12.822 89.222-32.055 121.277-59.303-33.124-33.658-56.097-72.66-68.92-117.003h-46.48v-32.056h121.277c-7.48-13.89-17.096-27.247-28.316-40.07l32.056-11.753c11.22 14.425 21.37 31.522 30.453 51.29h115.935v32.055h-46.481c-14.96 45.946-36.33 84.413-64.646 115.4 31.522 25.11 71.057 45.947 117.538 63.043l-17.631 27.782zM1023.288 934.6c0 22.974-18.7 41.673-41.673 41.673H492.232l20.837-95.633h156.538l-89.222-497.397-0.534 2.671-3.74-19.767 1.069 0.534-32.59-181.649h437.56c22.973 0 41.672 18.7 41.672 41.673V934.6z" p-id="2327"></path><path d="M684.566 541.384h114.866v-30.453H684.566v-60.905h122.346v-30.453H648.771V638.62h162.95v-30.453H684.565v-66.783zM924.45 475.67c-9.616 0-18.164 1.603-26.178 5.877-7.48 3.74-14.96 9.617-20.837 17.096v-18.699h-34.727V638.62h34.727v-95.633c1.069-12.822 5.343-22.439 12.823-29.384 6.41-5.877 13.89-9.083 22.439-9.083 24.041 0 35.795 12.823 35.795 39.001v94.565h34.727v-97.77c1.069-43.275-19.233-64.646-58.769-64.646z" p-id="2328"></path></svg>