<?xml version="1.0" standalone="no"?><!DOCTYPE svg PUBLIC "-//W3C//DTD SVG 1.1//EN" "http://www.w3.org/Graphics/SVG/1.1/DTD/svg11.dtd"><svg t="1667294100250" class="icon" viewBox="0 0 1024 1024" version="1.1" xmlns="http://www.w3.org/2000/svg" p-id="2473" xmlns:xlink="http://www.w3.org/1999/xlink" width="200" height="200"><path d="M579.2 478.4h-9.6l36.8 206.4c24.8-8.8 47.2-21.6 66.4-39.2-20-24.8-36.8-52-49.6-80.8l39.2-4.8c10.4 21.6 23.2 41.6 36.8 58.4 28.8-35.2 51.2-81.6 66.4-140.8l-186.4 0.8z m148 167.2c22.4 19.2 48 33.6 76 42.4l17.6 5.6-10.4 38.4-17.6-5.6c-34.4-10.4-65.6-28.8-92.8-52.8-24.8 22.4-54.4 40-86.4 50.4l24.8 139.2H490.4l-20 91.2h467.2c21.6 0 40-17.6 40-40V240c0-21.6-17.6-40-40-40H520l31.2 172.8-0.8-0.8 3.2 19.2 0.8-2.4 8.8 49.6h96v-40h74.4v40h124v40h-52c-16.8 69.6-44 125.6-78.4 167.2z m-277.6 217.6H87.2c-44 0-79.2-36-79.2-79.2V108.8c0-44 36-79.2 79.2-79.2h396.8l24.8 131.2h428c44 0 79.2 36 79.2 79.2v675.2c0 44-36 79.2-79.2 79.2H420.8l28.8-131.2zM262.4 557.6v-41.6H184v-61.6h72.8v-41.6H184V360h78.4v-41.6H137.6v238.4h124.8v0.8z m191.2 0V438.4c0-21.6-4.8-38.4-14.4-49.6-9.6-12-24.8-17.6-44-17.6-11.2 0-21.6 2.4-30.4 6.4-8.8 4.8-16 12-20 20h-2.4l-6.4-23.2h-34.4v182.4h44.8V471.2c0-21.6 3.2-36.8 8.8-46.4 5.6-8.8 14.4-13.6 27.2-13.6 8.8 0 16 3.2 20 9.6 4 6.4 6.4 16 6.4 29.6v107.2h44.8z" p-id="2474"></path></svg>