<svg t="1690425350168" class="icon" viewBox="0 0 1024 1024" version="1.1" xmlns="http://www.w3.org/2000/svg" p-id="11142" width="128" height="128"><path d="M138.666667 138.666667m128 0l85.333333 0q128 0 128 128l0 85.333333q0 128-128 128l-85.333333 0q-128 0-128-128l0-85.333333q0-128 128-128Z" fill="#09183F" p-id="11143"></path><path d="M138.666667 544m128 0l85.333333 0q128 0 128 128l0 85.333333q0 128-128 128l-85.333333 0q-128 0-128-128l0-85.333333q0-128 128-128Z" fill="#BEC1C8" p-id="11144"></path><path d="M544 138.666667m128 0l85.333333 0q128 0 128 128l0 85.333333q0 128-128 128l-85.333333 0q-128 0-128-128l0-85.333333q0-128 128-128Z" fill="#BEC1C8" p-id="11145"></path><path d="M544 544m128 0l85.333333 0q128 0 128 128l0 85.333333q0 128-128 128l-85.333333 0q-128 0-128-128l0-85.333333q0-128 128-128Z" fill="#09183F" p-id="11146"></path></svg>
