<svg t="1651750906395" class="icon" viewBox="0 0 1024 1024" version="1.1" xmlns="http://www.w3.org/2000/svg" p-id="9162" width="200" height="200"><path d="M904 158H408c-4.4 0-8 3.6-8 8v56c0 4.4 3.6 8 8 8h496c4.4 0 8-3.6 8-8v-56c0-4.4-3.6-8-8-8zM904 582H408c-4.4 0-8 3.6-8 8v56c0 4.4 3.6 8 8 8h496c4.4 0 8-3.6 8-8v-56c0-4.4-3.6-8-8-8zM904 794H120c-4.4 0-8 3.6-8 8v56c0 4.4 3.6 8 8 8h784c4.4 0 8-3.6 8-8v-56c0-4.4-3.6-8-8-8zM904 370H120c-4.4 0-8 3.6-8 8v56c0 4.4 3.6 8 8 8h784c4.4 0 8-3.6 8-8v-56c0-4.4-3.6-8-8-8z" p-id="9163"></path></svg>
