<?xml version="1.0" standalone="no"?><!DOCTYPE svg PUBLIC "-//W3C//DTD SVG 1.1//EN" "http://www.w3.org/Graphics/SVG/1.1/DTD/svg11.dtd"><svg t="1646185144620" class="icon" viewBox="0 0 1024 1024" version="1.1" xmlns="http://www.w3.org/2000/svg" p-id="3301" xmlns:xlink="http://www.w3.org/1999/xlink" width="128" height="128"><defs><style type="text/css"></style></defs><path d="M899.7 116.1 645 116.1 296.8 440.7 296.8 116.1 65 116.1 65 208.8 157.7 208.8 157.7 904.4Z" p-id="3302" fill="#409EFF"></path><path d="M603.9 626.7 603.9 517c23.7-13.9 49.9-24.6 78.5-31.9 28.6-7.3 58.1-10.9 88.7-10.9 53 0 93.5 11.4 121.5 34.1 28 22.7 42 55.4 42 98.1 0 29.4-7.1 53.1-21.3 71.1-14.2 18.1-35.9 31-65.1 38.9 30.1 4.2 52.7 16.1 67.7 35.5 15.1 19.4 22.6 46.3 22.6 80.5 0 47.5-14.5 83.4-43.5 107.5C866 964 822.9 976 765.8 976c-28.1 0-56.5-3.8-85-11.4-28.6-7.6-56.1-18.6-82.4-33L598.4 816.9l114 0 0 3.8c0 19 4.6 33.5 13.9 43.2 9.2 9.9 22.8 14.8 40.9 14.8 16.9 0 29.8-4.9 38.7-14.8 8.9-9.8 13.4-24 13.4-42.6 0-21.3-5.1-36.5-15.3-45.5-10.2-9-28.3-13.4-54.2-13.4l-63 0 0-81.8 66.9 0c21.6 0 38.1-4.8 49.6-14.4 11.5-9.6 17.3-23.2 17.3-40.7 0-17.3-5-30.7-15.2-40.3-10.1-9.5-24.2-14.3-42.2-14.3-15.6 0-27.6 4.7-35.9 14.1-8.4 9.4-13.1 23.3-14.2 41.7L603.9 626.7z" p-id="3303" fill="#409EFF"></path></svg>